<?xml version="1.0" encoding="UTF-8"?>
<svg xmlns="http://www.w3.org/2000/svg" width="600" height="400" viewBox="0 0 600 400">
  <defs>
    <linearGradient id="g1" x1="0" x2="1">
      <stop offset="0" stop-color="#6bc5b4"/>
      <stop offset="1" stop-color="#0f766e"/>
    </linearGradient>
    <linearGradient id="g2" x1="0" x2="1">
      <stop offset="0" stop-color="#ffd08a"/>
      <stop offset="1" stop-color="#ff7a59"/>
    </linearGradient>
  </defs>
  <rect width="100%" height="100%" rx="16" ry="16" fill="#f6f7fb" />
  <rect x="18" y="18" width="220" height="364" rx="10" fill="#ffffff" stroke="#e6e9ef" />
  <g transform="translate(36,36)">
    <rect width="160" height="28" rx="4" fill="#eaeef6" />
    <rect y="44" width="160" height="28" rx="4" fill="#dfe7f2" />
    <rect y="88" width="160" height="28" rx="4" fill="#eaeef6" />
    <rect y="132" width="160" height="28" rx="4" fill="#dfe7f2" />
    <rect y="176" width="160" height="28" rx="4" fill="#eaeef6" />
  </g>

  <g transform="translate(250,36)">
    <rect width="320" height="320" rx="12" fill="url(#g1)" />
    <g transform="translate(30,28)">
      <text x="0" y="36" font-family="Arial, Helvetica, sans-serif" font-weight="700" font-size="36" fill="#fff">LIBRARY</text>
      <text x="0" y="78" font-family="Arial, Helvetica, sans-serif" font-weight="700" font-size="36" fill="#fff">OF GAMES</text>
      <g transform="translate(0,110)">
        <!-- simple controllers -->
        <rect x="0" y="0" width="80" height="52" rx="8" fill="#fff" opacity="0.12" />
        <circle cx="110" cy="26" r="26" fill="#fff" opacity="0.14" />
        <g transform="translate(6,6)" fill="#fff">
          <circle cx="20" cy="20" r="6" />
          <circle cx="50" cy="20" r="6" />
        </g>
      </g>
    </g>
  </g>

  <rect x="0" y="0" width="600" height="32" rx="16" fill="transparent" />
</svg>
